<?xml version="1.0" encoding="UTF-8"?>
<svg version="1.1" xmlns="http://www.w3.org/2000/svg" width="2100" height="1500">
<path d="M0 0 C49.83 0 99.66 0 151 0 C151 57.42 151 114.84 151 174 C193.24 173.67 235.48 173.34 279 173 C279.33 115.91 279.66 58.82 280 0 C329.5 0 379 0 430 0 C430 156.42 430 312.84 430 474 C380.5 474 331 474 280 474 C280 406.68 280 339.36 280 270 C237.43 270 194.86 270 151 270 C151 337.32 151 404.64 151 474 C101.17 474 51.34 474 0 474 C0 317.58 0 161.16 0 0 Z " fill="#64DC90" transform="translate(783,483)"/>
<path d="M0 0 C1.59982931 5.19568626 0.58365928 10.24198886 0 15.5625 C-0.13100098 16.76688721 -0.26200195 17.97127441 -0.39697266 19.2121582 C-3.52626187 46.30857599 -8.2758567 73.33619204 -14 100 C-25.33374902 100.27439308 -36.60214167 99.44013616 -47.90625 98.72265625 C-50.03834863 98.59017365 -52.17046988 98.4580546 -54.3026123 98.32627869 C-59.89770305 97.97966483 -65.49252217 97.6288542 -71.08728027 97.2769165 C-80.00988008 96.71632178 -88.93287679 96.16208707 -97.85588074 95.60796928 C-100.9374118 95.416002 -104.01882336 95.22220723 -107.10021973 95.02809143 C-125.80475728 93.85557881 -144.48827692 92.77344518 -163.23339844 92.64990234 C-165.10656901 92.63304182 -166.97966817 92.60537981 -168.85253906 92.56787109 C-171.61035036 92.51339698 -174.36672559 92.49131821 -177.125 92.4765625 C-177.9603125 92.45389313 -178.795625 92.43122375 -179.65625 92.40786743 C-184.600607 92.41268811 -184.600607 92.41268811 -188.48925781 95.38745117 C-193.04402414 103.26407601 -194.35013833 111.92862324 -192.37890625 120.79296875 C-189.1786066 131.10504542 -182.969606 136.28605836 -173.6875 141.375 C-155.75488929 150.67302069 -136.00420836 156.38033481 -116.87615967 162.70129395 C-42.43292125 187.31592332 -42.43292125 187.31592332 -18 208 C-17.24058105 208.63977783 -17.24058105 208.63977783 -16.46582031 209.29248047 C10.48310462 232.28647326 25.58116412 261.99655249 28.82128906 297.26538086 C31.46439755 337.70999581 24.78516035 380.85082892 -2.56298828 412.37988281 C-38.10242749 452.44779286 -92.49351881 464.7904546 -144 468 C-148.08507373 468.14347068 -152.16652033 468.18590677 -156.25390625 468.203125 C-157.38078354 468.21013931 -158.50766083 468.21715363 -159.66868591 468.22438049 C-163.29999841 468.24181708 -166.93114712 468.2482368 -170.5625 468.25 C-171.81119873 468.25067474 -173.05989746 468.25134949 -174.34643555 468.25204468 C-194.30390319 468.23496546 -213.9707859 467.54395695 -233.79449463 465.25323486 C-236.10360027 464.98810468 -238.41369253 464.73330945 -240.72412109 464.47998047 C-271.01037846 461.13218804 -301.18270352 456.49671587 -331 450.1875 C-332.39714233 449.89552734 -332.39714233 449.89552734 -333.82250977 449.59765625 C-335.89853651 449.13518613 -337.95337348 448.57886576 -340 448 C-341.65737264 444.68525472 -340.52306487 441.11900937 -340.03125 437.55078125 C-339.85793655 436.24813576 -339.85793655 436.24813576 -339.68112183 434.91917419 C-339.29553376 432.04911337 -338.89881858 429.18075067 -338.5 426.3125 C-338.36539368 425.33325562 -338.23078735 424.35401123 -338.09210205 423.34509277 C-336.12549682 409.09771799 -333.91228401 394.90685958 -331.375 380.75 C-331.23537842 379.9633194 -331.09575684 379.17663879 -330.9519043 378.36611938 C-329.48740383 370.16817072 -327.8518344 362.0385183 -325.8515625 353.953125 C-325.59758194 352.92333527 -325.59758194 352.92333527 -325.33847046 351.8727417 C-324.1281036 347.1281036 -324.1281036 347.1281036 -323 346 C-314.27690422 346.24621685 -305.54533868 347.4461143 -296.8828125 348.453125 C-294.33891016 348.74362202 -291.79496288 349.03372566 -289.25097656 349.32348633 C-288.59342062 349.39863748 -287.93586468 349.47378862 -287.2583828 349.55121708 C-247.67995151 354.07310592 -208.05213587 358.43017335 -168.25 360.375 C-167.39442505 360.41887848 -166.5388501 360.46275696 -165.65734863 360.50796509 C-156.6477339 360.95523455 -147.6875581 361.09510348 -138.671875 360.7265625 C-137.88999817 360.70177826 -137.10812134 360.67699402 -136.30255127 360.65145874 C-130.93012388 360.36864155 -126.335928 359.40548417 -122.42578125 355.37890625 C-116.90282237 346.36776281 -114.64845601 336.39798363 -117 326 C-120.61850614 315.55446012 -128.96631042 310.48296915 -138.48388672 305.77001953 C-141.09561294 304.5874579 -143.72456695 303.46809814 -146.375 302.375 C-147.3868335 301.95532959 -148.39866699 301.53565918 -149.44116211 301.10327148 C-162.4639628 295.83532923 -175.85299995 291.61875463 -189.19509888 287.24617004 C-265.10141532 262.31382358 -265.10141532 262.31382358 -294 235 C-294.79921875 234.26523437 -295.5984375 233.53046875 -296.421875 232.7734375 C-325.06241518 205.50107599 -334.18560345 170.6957055 -336.19140625 132.33984375 C-336.95919925 92.6705385 -322.11902203 46.30834297 -294.38427734 17.3137207 C-241.65894122 -35.94342716 -110.46721812 -20.73922225 0 0 Z " fill="#64DC90" transform="translate(685,498)"/>
<path d="M0 0 C36.63 0 73.26 0 111 0 C108.97299362 6.08101913 106.87644295 11.98001849 104.4375 17.88671875 C103.92236343 19.14423447 103.92236343 19.14423447 103.39682007 20.42715454 C102.26744651 23.18180329 101.13378683 25.93466511 100 28.6875 C99.19722207 30.64273757 98.39465454 32.59806154 97.59228516 34.5534668 C91.0783886 50.4180346 84.52858222 66.26786242 77.9753418 82.11621094 C72.90351112 94.38280729 67.84784015 106.65587915 62.8125 118.9375 C62.4866391 119.73224731 62.1607782 120.52699463 61.82504272 121.3458252 C59.54921106 126.89688192 57.27446377 132.44838269 55 138 C52.39660671 144.35448383 49.7926889 150.70875208 47.1875 157.0625 C46.86206207 157.85623016 46.53662415 158.64996033 46.20132446 159.46774292 C40.2537168 173.97058782 34.27121867 188.4589204 28.28256226 202.94485474 C22.50908483 216.91111218 16.75791412 230.8862704 11.02874756 244.87075806 C5.58635941 258.15360049 0.11068243 271.42248547 -5.375 284.6875 C-11.61566185 299.77855503 -17.82532089 314.88182918 -24 330 C-30.57292861 346.09325045 -37.18919988 362.16810666 -43.83251953 378.23242188 C-49.24192063 391.3133772 -54.6337841 404.40126988 -60 417.5 C-65.76550215 431.57337277 -71.56294964 445.63329008 -77.375 459.6875 C-83.61566185 474.77855503 -89.82532089 489.88182918 -96 505 C-102.57292861 521.09325045 -109.18919988 537.16810666 -115.83251953 553.23242188 C-121.56610845 567.09732468 -127.27711865 580.97119757 -132.9647522 594.85501099 C-138.95913397 609.48566496 -144.99294353 624.09987591 -151.03704834 638.71005249 C-154.91760858 648.0908331 -158.79753544 657.4715338 -162.61328125 666.87890625 C-162.87863174 667.53283356 -163.14398224 668.18676086 -163.41737366 668.86050415 C-164.60510563 671.78977633 -165.78902452 674.72051881 -166.96801758 677.65332031 C-167.56005981 679.11850098 -167.56005981 679.11850098 -168.1640625 680.61328125 C-168.49873535 681.44641846 -168.8334082 682.27955566 -169.17822266 683.13793945 C-170 685 -170 685 -171 686 C-172.44213999 686.09558036 -173.88894079 686.12188394 -175.33424377 686.12025452 C-176.26958954 686.12162918 -177.2049353 686.12300385 -178.16862488 686.12442017 C-179.20296158 686.12082489 -180.23729828 686.11722961 -181.30297852 686.11352539 C-182.38577087 686.11367142 -183.46856323 686.11381744 -184.58416748 686.1139679 C-188.18243374 686.11326823 -191.78064897 686.10547333 -195.37890625 686.09765625 C-197.86612418 686.09579226 -200.35334248 686.09436827 -202.84056091 686.09336853 C-208.73021191 686.0899335 -214.6198439 686.08204277 -220.50948709 686.07201904 C-227.87025374 686.05976246 -235.23102264 686.05437791 -242.59179688 686.04882812 C-255.72787398 686.03808815 -268.86393583 686.02120089 -282 686 C-275.58371826 668.76921131 -275.58371826 668.76921131 -272.58203125 661.5234375 C-272.13998604 660.44758896 -272.13998604 660.44758896 -271.68901062 659.3500061 C-270.73256696 657.02401047 -269.77258612 654.69949422 -268.8125 652.375 C-268.11829409 650.68888256 -267.42428938 649.00268227 -266.73046875 647.31640625 C-264.49083156 641.87601203 -262.24584548 636.43783377 -260 631 C-259.61551697 630.06885376 -259.23103394 629.13770752 -258.8348999 628.17834473 C-255.24805498 619.49177247 -251.65994446 610.80572367 -248.06958008 602.12060547 C-242.70112339 589.13225313 -237.35665107 576.13427508 -232.02874756 563.12924194 C-226.58635941 549.84639951 -221.11068243 536.57751453 -215.625 523.3125 C-209.38433815 508.22144497 -203.17467911 493.11817082 -197 478 C-190.42707139 461.90674955 -183.81080012 445.83189334 -177.16748047 429.76757812 C-171.75807937 416.6866228 -166.3662159 403.59873012 -161 390.5 C-155.23449785 376.42662723 -149.43705036 362.36670992 -143.625 348.3125 C-137.38433815 333.22144497 -131.17467911 318.11817082 -125 303 C-118.82532062 287.88182853 -112.61553441 272.77860812 -106.375 257.6875 C-100.50277543 243.48653308 -94.64197216 229.28107605 -88.8125 215.0625 C-88.4866391 214.26775269 -88.1607782 213.47300537 -87.82504272 212.6541748 C-85.54921106 207.10311808 -83.27446377 201.55161731 -81 196 C-78.39660671 189.64551617 -75.7926889 183.29124792 -73.1875 176.9375 C-72.69934311 175.74690475 -72.69934311 175.74690475 -72.20132446 174.53225708 C-66.2537168 160.02941218 -60.27121867 145.5410796 -54.28256226 131.05514526 C-48.83534416 117.87812131 -43.40583626 104.69405283 -38 91.5 C-27.02726418 64.72175475 -15.99430645 37.96774595 -4.875 11.25 C-4.28162842 9.82312866 -4.28162842 9.82312866 -3.67626953 8.36743164 C-3.15202393 7.11047485 -3.15202393 7.11047485 -2.6171875 5.828125 C-2.32440918 5.1259082 -2.03163086 4.42369141 -1.72998047 3.70019531 C-1.19281725 2.44909007 -0.60890207 1.21780414 0 0 Z " fill="#020202" transform="translate(1671,401)"/>
<path d="M0 0 C0.23386884 14.74244808 0.41007136 29.48464989 0.51812172 44.22857761 C0.56963169 51.07497317 0.63981852 57.92021459 0.75439453 64.76586914 C0.86492411 71.37292286 0.92284986 77.97909334 0.94877243 84.58711052 C0.967244 87.10745043 1.00331671 89.627725 1.05730057 92.1475544 C1.12996478 95.67996763 1.13988958 99.20743764 1.13525391 102.74047852 C1.18918304 104.30170441 1.18918304 104.30170441 1.24420166 105.89447021 C1.18148234 110.31480375 1.06418584 112.93043951 -2.13791275 116.14871025 C-4.68955259 117.96034125 -7.25273302 119.50526593 -10 121 C-11.5643798 121.95705788 -13.1261132 122.9184738 -14.68359375 123.88671875 C-16.2664101 124.82339323 -17.85110356 125.75690179 -19.4375 126.6875 C-26.16506152 130.67893876 -32.83578421 134.74107125 -39.4375 138.9375 C-45.99519042 143.10501689 -52.57602591 147.23078435 -59.1875 151.3125 C-66.80684282 156.01762668 -74.4091888 160.74897798 -82 165.5 C-90.33250205 170.71455071 -98.67971073 175.90430991 -107.04223633 181.07055664 C-114.93319272 185.94929722 -122.79838601 190.86893766 -130.65625 195.80078125 C-136.72905427 199.60562989 -142.84029945 203.33745264 -149 207 C-140.95503376 212.75766119 -132.68460946 218.12450146 -124.36669922 223.47460938 C-120.29923875 226.0961787 -116.24370013 228.73605504 -112.1875 231.375 C-110.49349773 232.47657503 -108.79948726 233.57813744 -107.10546875 234.6796875 C-106.26161621 235.22850586 -105.41776367 235.77732422 -104.54833984 236.34277344 C-100.36604137 239.06258969 -96.18298696 241.78124278 -92 244.5 C-90.33332961 245.58332761 -88.66666295 246.66666095 -87 247.75 C-86.175 248.28625 -85.35 248.8225 -84.5 249.375 C-75.33333333 255.33333333 -66.16666667 261.29166667 -57 267.25 C-56.17508057 267.78616943 -55.35016113 268.32233887 -54.50024414 268.87475586 C-52.83265955 269.95874283 -51.16517916 271.04289012 -49.49780273 272.12719727 C-45.34601741 274.82685039 -41.19249177 277.52374425 -37.03515625 280.21484375 C-28.09250854 286.00760937 -19.18182037 291.84543923 -10.3125 297.75 C-9.39670166 298.35900146 -8.48090332 298.96800293 -7.53735352 299.59545898 C-6.69615967 300.15692627 -5.85496582 300.71839355 -4.98828125 301.296875 C-3.86740112 302.04469238 -3.86740112 302.04469238 -2.72387695 302.80761719 C-1 304 -1 304 0 305 C0.09571971 306.49283798 0.12188227 307.99019655 0.12025452 309.48609924 C0.12231651 310.93960281 0.12231651 310.93960281 0.12442017 312.42247009 C0.12082489 313.49420975 0.11722961 314.5659494 0.11352539 315.67016602 C0.11367142 316.79197266 0.11381744 317.9137793 0.1139679 319.06958008 C0.1132682 322.79770811 0.10547315 326.52578689 0.09765625 330.25390625 C0.09579227 332.83080518 0.09436827 335.40770447 0.09336853 337.98460388 C0.08993342 344.08675115 0.0820426 350.18887794 0.07201904 356.29101747 C0.06085689 363.2364925 0.0553472 370.18196835 0.05032361 377.12745011 C0.03985996 391.41830966 0.02226115 405.7091542 0 420 C-3.155606 418.81239219 -5.93343767 417.54116214 -8.72485352 415.65209961 C-9.41763901 415.1867128 -10.1104245 414.72132599 -10.82420349 414.24183655 C-11.93409386 413.48597511 -11.93409386 413.48597511 -13.06640625 412.71484375 C-13.85463272 412.18358383 -14.64285919 411.65232391 -15.45497131 411.10496521 C-17.12832824 409.97648875 -18.80031012 408.845971 -20.4710083 407.71356201 C-22.91215135 406.05952337 -25.3573162 404.41164571 -27.80419922 402.76611328 C-32.85232591 399.37037276 -37.89503927 395.96664611 -42.9375 392.5625 C-44.81506857 391.29552016 -46.69267359 390.02859434 -48.5703125 388.76171875 C-52.45440406 386.14099476 -56.33834192 383.52004324 -60.22216797 380.89892578 C-65.76332475 377.15948414 -71.30531534 373.42128007 -76.84765625 369.68359375 C-77.72854416 369.08952728 -78.60943207 368.49546082 -79.51701355 367.88339233 C-83.96460792 364.88402198 -88.4123187 361.88482432 -92.86010742 358.88574219 C-100.96335649 353.42159197 -109.06589218 347.9563997 -117.1647644 342.48576355 C-121.69269226 339.42729202 -126.22124412 336.36974527 -130.75 333.3125 C-131.63467957 332.71519073 -132.51935913 332.11788147 -133.43084717 331.50247192 C-143.19282441 324.91324335 -152.96741995 318.34385742 -162.7734375 311.8203125 C-163.64979858 311.23716782 -164.52615967 310.65402313 -165.42907715 310.0532074 C-169.55915642 307.30600584 -173.69134263 304.56205897 -177.82714844 301.82348633 C-185.87411306 296.48525876 -193.82561723 291.03977579 -201.69543457 285.44361877 C-209.23410274 280.09616119 -216.92047001 274.97920563 -224.625 269.875 C-226.01056671 268.95465294 -227.39598338 268.03407995 -228.78125 267.11328125 C-231.36578052 265.3955825 -233.9512809 263.67936307 -236.53759766 261.96435547 C-237.18590546 261.51170319 -237.83421326 261.0590509 -238.50216675 260.59268188 C-240.57124732 259.27338359 -242.59104291 258.187704 -244.77932739 257.09359741 C-254.74140213 251.80359053 -254.74140213 251.80359053 -256.86028671 247.08366776 C-258.24290067 241.58763622 -258.00230781 235.99074726 -257.8515625 230.3671875 C-257.85150861 228.56217797 -257.8565098 226.75716193 -257.86630249 224.95217896 C-257.87035053 221.18294236 -257.82264462 217.41909157 -257.73583984 213.65087891 C-257.6277943 208.83571723 -257.63570364 204.02923707 -257.68062782 199.21334648 C-257.70490864 195.49099716 -257.67476565 191.77062939 -257.62772751 188.04855728 C-257.61041651 186.27453927 -257.60811009 184.50030538 -257.62150955 182.72625351 C-257.67235945 168.95111585 -257.67235945 168.95111585 -253.57566833 164.17156982 C-250.79641143 162.1228574 -248.09111752 160.52521846 -245 159 C-243.746967 158.21290896 -242.50053666 157.41486491 -241.26953125 156.59375 C-240.11898297 155.89287737 -238.96657842 155.19504445 -237.8125 154.5 C-231.23469795 150.45535826 -224.78885693 146.23683872 -218.375 141.9375 C-207.9094394 134.92624456 -197.40188361 127.98130745 -186.875 121.0625 C-186.06842957 120.53228241 -185.26185913 120.00206482 -184.43084717 119.45578003 C-180.27937144 116.72677 -176.12757458 113.99824912 -171.97558594 111.27001953 C-164.76874311 106.53411938 -157.56489342 101.79367046 -150.36090088 97.05343628 C-146.40739782 94.45209239 -142.45368816 91.85106254 -138.5 89.25 C-136.91666568 88.20833483 -135.33333235 87.16666816 -133.75 86.125 C-117.91666667 75.70833333 -102.08333333 65.29166667 -86.25 54.875 C-85.46638092 54.3594606 -84.68276184 53.8439212 -83.87539673 53.3127594 C-82.29074293 52.27022508 -80.70608717 51.22769375 -79.12142944 50.18516541 C-75.1832831 47.59429827 -71.24517006 45.00338054 -67.30712891 42.41235352 C-59.94173783 37.56638434 -52.57601772 32.72091751 -45.20916748 27.87716675 C-41.76041298 25.60954587 -38.31184054 23.3416482 -34.86328125 21.07373047 C-33.23218693 20.00116433 -31.60100516 18.92873116 -29.96972656 17.85644531 C-28.43232526 16.84585933 -26.89506939 15.83505207 -25.35797119 14.82400513 C-23.90712195 13.86997787 -22.45576249 12.91672599 -21.00384521 11.96432495 C-17.77044671 9.84015741 -14.54991207 7.70175875 -11.36035156 5.51220703 C-10.28495117 4.77728027 -9.20955078 4.04235352 -8.1015625 3.28515625 C-7.17939941 2.64586182 -6.25723633 2.00656738 -5.30712891 1.34790039 C-3 0 -3 0 0 0 Z " fill="#020202" transform="translate(281,541)"/>
<path d="M0 0 C3.02335124 1.14778569 5.75750201 2.33791917 8.45288086 4.12524414 C9.09217026 4.54592667 9.73145966 4.96660919 10.39012146 5.40003967 C11.07477982 5.85712814 11.75943817 6.31421661 12.46484375 6.78515625 C13.56355553 7.51072975 13.56355553 7.51072975 14.6844635 8.2509613 C17.10490031 9.85068193 19.52113708 11.45663385 21.9375 13.0625 C23.6461685 14.19318582 25.35515832 15.3233862 27.06445312 16.453125 C30.61697296 18.80166573 34.16809758 21.15229448 37.71826172 23.50439453 C45.02044391 28.34009003 52.33929663 33.15038169 59.65823364 37.96066284 C63.60629559 40.55588266 67.55307796 43.15304704 71.5 45.75 C73.08332731 46.79167582 74.66666064 47.83334249 76.25 48.875 C161.75 105.125 161.75 105.125 164.1247406 106.68733215 C165.70893516 107.72956354 167.29313316 108.77178969 168.87733459 109.81401062 C172.82251939 112.40949427 176.76764534 115.00506728 180.71264648 117.60083008 C187.99431159 122.39194592 195.27651682 127.18223384 202.56074524 131.9694519 C233.40584179 152.24095793 233.40584179 152.24095793 245.8125 160.5 C246.66013916 161.06356201 247.50777832 161.62712402 248.38110352 162.20776367 C249.12803467 162.70638916 249.87496582 163.20501465 250.64453125 163.71875 C251.27721924 164.14091797 251.90990723 164.56308594 252.56176758 164.99804688 C254 166 254 166 255 167 C255.30208219 169.41414017 255.53925103 171.80453521 255.73242188 174.22827148 C255.82521124 175.3661206 255.82521124 175.3661206 255.91987514 176.52695656 C260.97305771 241.41422123 260.97305771 241.41422123 251.44189453 255.23779297 C243.37323672 264.31680292 232.16234142 268.83410357 220.99511719 272.9362793 C213.48588833 275.82335502 207.39777428 280.6920775 201.02645874 285.50061035 C197.75569729 287.92066745 194.37138507 290.1612712 190.9765625 292.40234375 C190.30815338 292.84609848 189.63974426 293.28985321 188.95108032 293.74705505 C187.56639616 294.66601058 186.18106841 295.583997 184.7951355 296.50106812 C180.89441682 299.08298832 177.00006998 301.67448998 173.10546875 304.265625 C172.28560989 304.81095383 171.46575104 305.35628265 170.62104797 305.9181366 C161.03280459 312.30108489 151.48403404 318.74240602 141.9375 325.1875 C140.59211151 326.09566971 140.59211151 326.09566971 139.21954346 327.02218628 C134.64190975 330.11236764 130.06472901 333.20321901 125.48779297 336.29443359 C116.49496318 342.36755233 107.4971735 348.43331921 98.5 354.5 C94.92963512 356.90747442 91.35931502 359.3150152 87.7890625 361.72265625 C86.90421677 362.31936127 86.01937103 362.91606628 85.10771179 363.53085327 C78.70308425 367.85032678 72.30049776 372.1728164 65.8984375 376.49609375 C49.64032356 387.47380149 33.37929767 398.44723671 17.06842041 409.34646606 C15.61687277 410.31664856 14.16581516 411.28756465 12.715271 412.25924683 C10.74662557 413.57751299 8.77600507 414.89276556 6.8046875 416.20703125 C6.22468994 416.59607635 5.64469238 416.98512146 5.04711914 417.38595581 C1.11466969 420 1.11466969 420 0 420 C-0.35120349 405.04916297 -0.61529557 390.09864647 -0.77718258 375.14455605 C-0.85436889 368.19994445 -0.95947559 361.25790255 -1.1315918 354.31494141 C-1.29772175 347.61023231 -1.38433058 340.90873793 -1.42315865 334.20188522 C-1.45081336 331.64750597 -1.5048246 329.09326804 -1.58595085 326.54002762 C-2.1808738 307.03529314 -2.1808738 307.03529314 1.46109581 301.96647835 C4.93707184 298.68166523 8.8138057 296.61126559 13.20236206 294.78465843 C15.71437406 293.6881799 17.89309236 292.19918828 20.13671875 290.63671875 C21.65305153 289.65272941 23.16997871 288.66965541 24.6875 287.6875 C26.39975565 286.57684769 28.11199475 285.46616986 29.82421875 284.35546875 C31.1088501 283.52281494 31.1088501 283.52281494 32.41943359 282.67333984 C36.61533529 279.95255364 40.80751213 277.22604238 45 274.5 C46.66664806 273.41663805 48.33331475 272.33330474 50 271.25 C50.825 270.71375 51.65 270.1775 52.5 269.625 C100 238.75 100 238.75 102.50195312 237.1237793 C104.16216892 236.04460658 105.82232555 234.96534282 107.48242188 233.88598633 C111.74729664 231.11323144 116.01330895 228.34225195 120.28125 225.57421875 C134.83557224 217.14352974 134.83557224 217.14352974 148 207 C147.40276123 206.63874023 146.80552246 206.27748047 146.19018555 205.90527344 C135.08673588 199.18311613 124.01371363 192.42287396 113.05615234 185.46508789 C107.33232051 181.83304771 101.580351 178.2491871 95.8125 174.6875 C88.25754052 170.02109845 80.7163117 165.33348138 73.1875 160.625 C72.18485107 159.99803223 71.18220215 159.37106445 70.14916992 158.72509766 C65.11766406 155.57794086 60.08761656 152.42846657 55.05859375 149.27734375 C43.40220052 141.97770974 31.71777713 134.72670028 19.99072266 127.54125977 C18.97671387 126.91920654 17.96270508 126.29715332 16.91796875 125.65625 C16.03906982 125.11806641 15.1601709 124.57988281 14.25463867 124.02539062 C13.18060791 123.35701172 12.10657715 122.68863281 11 122 C10.08261551 121.71027817 9.16523102 121.42055634 8.220047 121.12205505 C4.37571844 119.55066215 2.54685202 118.32453945 0 115 C-2.15590248 106.70433826 -1.27240137 97.64472456 -1.07421875 89.16015625 C-1.05369442 86.59186637 -1.0380401 84.02353333 -1.02705383 81.45518494 C-0.98939775 75.39458652 -0.90279071 69.33651601 -0.79220945 63.27686828 C-0.66901031 56.3750933 -0.60871736 49.47321007 -0.55355966 42.57060826 C-0.43875642 28.37922806 -0.2454333 14.18969218 0 0 Z " fill="#010101" transform="translate(1825,541)"/>
</svg>
